<?xml version="1.0" encoding="utf-8"?>
<!-- Generator: Adobe Illustrator 24.0.1, SVG Export Plug-In . SVG Version: 6.00 Build 0)  -->
<svg version="1.1" id="Layer_1" xmlns="http://www.w3.org/2000/svg" xmlns:xlink="http://www.w3.org/1999/xlink" x="0px" y="0px"
	 viewBox="0 0 50 50" style="enable-background:new 0 0 50 50;" xml:space="preserve">
<style type="text/css">
	.st0{fill:#E72167;}
</style>
<path class="st0" d="M25,17c0-0.2,0-0.3-0.1-0.4c-0.1-0.2-0.2-0.5-0.3-0.7c-0.3-0.5-0.7-1-1.1-1.4c-0.8-0.7-1.6-1.4-2.6-1.9
	c-0.7-0.4-1.4-0.8-2-1.2c-0.4-0.2-0.8-0.5-1.2-0.7c-0.1-0.1-0.3-0.1-0.5-0.1c-0.5,0-1,0-1.5,0c-0.2,0-0.3-0.1-0.5-0.2
	c-0.1-0.2-0.3-0.3-0.4-0.5c-0.6-0.8-1-1.6-1.2-2.6c-0.1-0.5-0.1-0.9-0.1-1.4c0.1-1.1,0.4-2.2,0.8-3.2c0.2-0.5,0.4-1.1,0.6-1.6
	c0-0.1,0.1-0.1,0.1-0.2c0.1,0,0,0.1,0,0.1c-0.1,0.3-0.1,0.6-0.2,1c-0.2,1.4,0.1,2.7,0.9,3.9c0.2,0.3,0.4,0.6,0.7,0.8
	c0.6,0.7,1.4,1.2,2.2,1.7c0.9,0.5,1.7,1,2.6,1.6c0.7,0.4,1.4,0.9,2.1,1.4c0.5,0.4,1,0.9,1.4,1.4c0.6,0.8,1,1.7,1.2,2.8
	c0.1,0.5,0.1,1.1,0.1,1.6c0,0.8-0.2,1.5-0.4,2.3c-0.1,0.5-0.2,0.9-0.3,1.4c-0.1,0.3-0.2,0.6-0.2,0.9c0,0.1,0,0.1-0.1,0.2
	c0-0.1,0-0.1,0-0.2c0-0.3,0-0.6-0.1-0.9c-0.3-0.8-0.7-1.5-1.4-2.1c-1.2-1.2-2.7-2-4.3-2.3c-0.7-0.2-1.5-0.2-2.2-0.2
	c-1,0.1-1.9,0.4-2.7,0.9c-0.5,0.3-0.9,0.7-1.3,1.2c-0.4,0.5-0.7,1-0.9,1.6c-0.4,0.9-0.6,1.8-0.7,2.8c-0.1,1.4,0.1,2.7,0.7,4
	c0.4,0.9,0.9,1.7,1.5,2.4c0.9,1.1,1.8,2.2,2.9,3.2c1.2,1.2,2.5,2.4,3.6,3.7c1,1.1,1.9,2.3,2.6,3.6c0.5,1,0.9,2,1,3
	c0.1,0.6,0.2,1.3,0.1,1.9c0,1.1-0.2,2.2-0.6,3.3c-0.1,0.3-0.1,0.5-0.3,0.8c0,0,0,0.1-0.1,0.1c-0.1,0,0-0.1,0-0.1
	c0-0.2,0.1-0.4,0.1-0.7c0.1-0.3,0.1-0.6,0.1-0.9c0-0.4,0-0.8,0-1.1c0-0.7-0.2-1.3-0.4-1.9c-0.3-1-0.8-1.9-1.3-2.8
	c-0.5-0.9-1.2-1.7-1.8-2.4c-0.7-0.8-1.5-1.6-2.2-2.4c-0.8-0.9-1.7-1.7-2.5-2.6c-0.7-0.8-1.4-1.6-2-2.5c-0.8-1.1-1.5-2.3-1.9-3.6
	c-0.3-0.8-0.5-1.6-0.6-2.4c-0.1-0.7-0.1-1.4,0-2.2c0.1-0.8,0.2-1.6,0.4-2.4c0.4-1.4,1-2.6,1.9-3.6c0.6-0.7,1.4-1.2,2.2-1.7
	c0.6-0.3,1.2-0.6,1.9-0.8c0.3-0.1,0.5-0.1,0.8-0.2c0.5-0.1,0.9-0.1,1.4-0.1c1.9,0,3.6,0.7,5,1.9C24.4,16.4,24.7,16.7,25,17
	C25,17,25,17,25,17z M31.6,18.9c-0.4,0.6-0.8,1.2-1.3,1.8c-0.6,0.7-1.3,1.3-2,1.8c-1.1,0.9-2.3,1.6-3.7,2c-0.9,0.3-1.9,0.5-2.8,0.5
	c-0.4,0-0.8-0.1-1.3-0.2c-0.8-0.3-1.5-0.8-1.9-1.6c-0.2-0.5-0.3-1-0.4-1.5c0-0.4,0-0.8,0.1-1.3c0-0.1,0-0.1,0-0.2
	c0,0.1-0.1,0.1-0.1,0.1c0,0.1-0.1,0.2-0.1,0.4c-0.1,0.6-0.2,1.3-0.3,2c-0.1,0.7,0,1.5,0.2,2.2c0.2,0.6,0.4,1.2,0.8,1.6
	c0.7,0.8,1.6,1.2,2.6,1.2c0.8,0.1,1.6,0,2.4-0.3c0.9-0.3,1.8-0.7,2.7-1.2c1.7-1,3.1-2.2,4.3-3.8c0.3-0.4,0.5-0.8,0.7-1.2
	c0.3-0.5,0.4-1.1,0.5-1.7c0-0.4,0.1-0.7,0.1-1.1c0-0.2,0.1-0.3,0.2-0.4c0.4-0.3,0.7-0.6,1-1c0.7-1,1-2.1,0.8-3.3
	c0-0.3-0.1-0.6-0.1-0.9c0-0.1,0-0.2-0.1-0.3c0,0,0,0,0,0c0,0,0,0,0,0c0,0.1,0,0.1,0,0.2c0,0.7-0.2,1.3-0.6,1.9
	c-0.3,0.4-0.6,0.8-1.1,1c-0.1,0-0.1,0-0.2,0.1c-0.1,0-0.1-0.1-0.1-0.2c-0.1-0.2-0.1-0.4-0.2-0.6c-0.3-0.6-0.6-1.1-0.9-1.6
	c-0.5-0.6-1-1.1-1.7-1.5c-0.4-0.2-0.7-0.4-1.2-0.4c-0.2,0-0.3,0-0.5,0c0,0.1-0.1,0.2-0.1,0.4c-0.1,0.6-0.1,1.3-0.2,1.9
	c0,0.4-0.1,0.8-0.1,1.2c-0.1,0.7-0.1,1.4,0,2.1c0.1,0.4,0.2,0.8,0.4,1.2c0.2,0.5,0.5,0.9,0.9,1.2c0.3,0.3,0.7,0.4,1.2,0.3
	c0.4-0.1,0.8-0.2,1.2-0.5c0.1-0.1,0.2-0.2,0.4-0.3c0.1-0.1,0.3-0.2,0.4-0.2c0,0,0,0,0.1,0C31.7,18.7,31.6,18.8,31.6,18.9z
	 M30.7,16.6c-0.2,0.1-0.5,0.2-0.8,0.2c-0.8,0.1-1.4-0.3-1.8-0.9c-0.2-0.3-0.4-0.7-0.5-1c-0.1-0.3-0.1-0.5-0.2-0.8c0,0,0.1,0,0.1,0
	c0.2,0,0.5,0.1,0.7,0.1c0.3,0.1,0.6,0.3,0.9,0.5c0.6,0.4,1.1,1,1.6,1.6c0,0.1,0.1,0.1,0.1,0.2C30.8,16.5,30.8,16.6,30.7,16.6z
	 M16.9,23.8c0,0.2-0.1,0.5-0.1,0.7c-0.1,0.4-0.1,0.8-0.1,1.2c0,0.8,0,1.5,0.1,2.3c0.1,0.6,0.2,1.1,0.4,1.6c0.5,1.2,1.3,2.1,2.5,2.6
	c0.7,0.3,1.4,0.4,2.2,0.5c1,0,1.9-0.2,2.8-0.6c0.7-0.3,1.3-0.6,1.8-1c0.7-0.5,1.4-1.1,2-1.7c0.8-0.7,1.5-1.5,2.3-2.3
	c0.7-0.7,1.3-1.3,2-2c0.3-0.3,0.6-0.5,0.9-0.7c0.6-0.4,1.1-0.7,1.8-0.9c0.5-0.1,1-0.2,1.6-0.1c0.6,0.1,1,0.4,1.2,0.9
	c0.1,0.3,0.2,0.5,0.2,0.8c0.1,0.5,0,1-0.1,1.5c0,0,0,0,0,0.1c0-0.1,0.1-0.1,0.1-0.1c0.3-0.8,0.6-1.6,0.7-2.4c0.1-0.6,0-1.2-0.1-1.8
	c-0.1-0.4-0.3-0.8-0.6-1.1c-0.5-0.6-1.1-0.8-1.8-0.8c-0.4,0-0.7,0.1-1,0.2c-0.6,0.2-1.1,0.5-1.6,0.9C33.5,22,33,22.5,32.5,23
	c-0.6,0.6-1.2,1.2-1.8,1.8c-0.6,0.6-1.2,1.2-1.8,1.8c-0.7,0.7-1.5,1.3-2.3,1.8c-0.7,0.5-1.4,0.9-2.2,1.2c-0.7,0.2-1.4,0.4-2.1,0.4
	c-0.2,0-0.5,0-0.7,0c-0.3,0-0.6-0.1-0.9-0.2c-1.9-0.6-3-1.9-3.5-3.7c-0.1-0.3-0.1-0.6-0.1-0.9c0-0.2,0-0.5,0-0.7c0-0.2,0-0.4,0-0.7
	C16.9,23.7,16.9,23.7,16.9,23.8z"/>
</svg>
