<svg xmlns="http://www.w3.org/2000/svg" width="27.307" height="27.303" viewBox="0 0 50 50"><path d="M45.834,32.784h-6.049V17.215h6.049c1.933,0,3.5-1.567,3.5-3.5s-1.567-3.5-3.5-3.5h-6.049V4.167c0-1.933-1.567-3.5-3.5-3.5  s-3.5,1.567-3.5,3.5v6.048h-15.57V4.167c0-1.933-1.567-3.5-3.5-3.5s-3.5,1.567-3.5,3.5v6.048H4.167c-1.933,0-3.5,1.567-3.5,3.5  s1.567,3.5,3.5,3.5h6.048v15.569H4.167c-1.933,0-3.5,1.567-3.5,3.5s1.567,3.5,3.5,3.5h6.049v6.049c0,1.933,1.567,3.5,3.5,3.5  s3.5-1.567,3.5-3.5v-6.049h15.57v6.049c0,1.933,1.567,3.5,3.5,3.5s3.5-1.567,3.5-3.5v-6.049h6.049c1.933,0,3.5-1.567,3.5-3.5  S47.767,32.784,45.834,32.784z M17.215,17.215h15.57v15.569h-15.57V17.215z" transform="translate(0.018 0)" fill="#dfdfdf"/></svg>